HIERARCHY
ROOT Hips
{
  OFFSET -125.086 92.215 135.881
  CHANNELS 6 Xposition Yposition Zposition Zrotation Xrotation Yrotation
  JOINT LeftUpLeg
  {
    OFFSET 8.64259 1.95398 -2.38835
    CHANNELS 3 Zrotation Xrotation Yrotation
    JOINT LeftLeg
    {
      OFFSET 43.7702 0 0
      CHANNELS 3 Zrotation Xrotation Yrotation
      JOINT LeftFoot
      {
        OFFSET 40.6238 0 0
        CHANNELS 3 Zrotation Xrotation Yrotation
        JOINT LeftToeBase
        {
          OFFSET 12.7242 0 0
          CHANNELS 3 Zrotation Xrotation Yrotation
          End Site
          {
            OFFSET 0 0 0
          }
        }
      }
    }
  }
  JOINT RightUpLeg
  {
    OFFSET -8.2249 1.95398 -2.59336
    CHANNELS 3 Zrotation Xrotation Yrotation
    JOINT RightLeg
    {
      OFFSET 43.5653 0 0
      CHANNELS 3 Zrotation Xrotation Yrotation
      JOINT RightFoot
      {
        OFFSET 40.6238 0 0
        CHANNELS 3 Zrotation Xrotation Yrotation
        JOINT RightToeBase
        {
          OFFSET 12.7242 0 0
          CHANNELS 3 Zrotation Xrotation Yrotation
          End Site
          {
            OFFSET 0 0 0
          }
        }
      }
    }
  }
  JOINT Spine
  {
    OFFSET 0.165834 0.87714 6.61349
    CHANNELS 3 Zrotation Xrotation Yrotation
    JOINT Spine1
    {
      OFFSET 7.38963 1.71661e-005 0
      CHANNELS 3 Zrotation Xrotation Yrotation
      JOINT Spine2
      {
        OFFSET 11.9445 1.14441e-005 0
        CHANNELS 3 Zrotation Xrotation Yrotation
        JOINT Spine3
        {
          OFFSET 14.7254 4.19617e-005 0
          CHANNELS 3 Zrotation Xrotation Yrotation
          JOINT Spine4
          {
            OFFSET 10.9679 0 0
            CHANNELS 3 Zrotation Xrotation Yrotation
            JOINT RightShoulder
            {
              OFFSET 2.46616 -1.6653 3.69651
              CHANNELS 3 Zrotation Xrotation Yrotation
              JOINT RightArm
              {
                OFFSET 13.0012 0 0
                CHANNELS 3 Zrotation Xrotation Yrotation
                JOINT RightForeArm
                {
                  OFFSET 28.7848 1.52588e-005 0
                  CHANNELS 3 Zrotation Xrotation Yrotation
                  JOINT RightHand
                  {
                    OFFSET 26.5688 1.52588e-005 0
                    CHANNELS 3 Zrotation Xrotation Yrotation
                    End Site
                    {
                      OFFSET 0 0 0
                    }
                  }
                }
              }
            }
            JOINT LeftShoulder
            {
              OFFSET 2.38034 -1.29275 -3.7523
              CHANNELS 3 Zrotation Xrotation Yrotation
              JOINT LeftArm
              {
                OFFSET 16.3182 6.10352e-005 0
                CHANNELS 3 Zrotation Xrotation Yrotation
                JOINT LeftForeArm
                {
                  OFFSET 27.0901 0 0
                  CHANNELS 3 Zrotation Xrotation Yrotation
                  JOINT LeftHand
                  {
                    OFFSET 24.5451 1.52588e-005 0
                    CHANNELS 3 Zrotation Xrotation Yrotation
                    End Site
                    {
                      OFFSET 0 0 0
                    }
                  }
                }
              }
            }
            JOINT Neck
            {
              OFFSET 5.0226 -0.0266342 0
              CHANNELS 3 Zrotation Xrotation Yrotation
              JOINT Head
              {
                OFFSET 6.69363 2.86102e-005 0
                CHANNELS 3 Zrotation Xrotation Yrotation
                End Site
                {
                  OFFSET 0 0 0
                }
              }
            }
          }
        }
      }
    }
  }
}
MOTION
Frames:	10
Frame Time:	0.0416667
9.1643 77.6199 10.5512 91.7568 32.1992 109.29 -162.49 57.779 76.4368 -66.444 4.65085 -2.68739 52.1393 1.22118 15.2431 41.5916 -1.08872 -7.42605 171.447 -6.09071 81.9264 -42.1175 -11.361 -2.83082 65.0975 -0.0723675 24.0252 87.154 -10.7377 -2.95657 0.889221 9.70405 -91.5561 7.46822 1.10177 -3.12356 -4.20614 0.963315 -3.16897 -26.7218 1.98928 -2.64856 -6.70914 1.98928 -2.64857 108.139 -46.6769 -72.4554 19.6139 -8.4896 -29.1037 -13.7891 -5.26824 -70.3474 -9.17068 -0.0130966 -5.30983 -79.9874 -44.3096 93.373 -30.0519 -6.4925 -0.159777 4.82794 22.5622 -21.3692 10.0622 -0.979011 -12.503 14.8972 -0.258267 -27.8772 -14.6557 3.51824 39.6608 
26.6469 77.694 1.21098 88.1846 35.5831 109.943 -161.972 43.0572 74.8434 -67.3132 12.0327 -4.18887 64.827 16.7751 31.9469 39.1474 -0.79084 -4.19908 173.143 -4.06487 81.9209 -58.8194 -18.9571 -3.75003 43.835 6.38607 16.63 57.1948 -5.18805 -7.55498 0.716415 9.53577 -91.0667 7.80622 0.965332 -2.15967 -3.86622 0.869367 -2.20004 -26.3942 1.56968 -1.76987 -6.38155 1.56969 -1.76988 108.994 -47.8863 -71.2392 16.8853 -13.4696 -18.9941 -16.3019 -4.78069 -73.87 -10.1254 -0.000273423 -5.43524 -78.8689 -45.322 95.2076 -20.6073 -7.69669 -15.4234 2.84474 18.5446 -17.5667 11.0106 -0.995805 -12.0791 14.9378 -0.254244 -25.1882 -13.9095 3.55476 34.3343 
41.4733 79.2024 -6.97267 82.6047 45.0933 107.24 -167.354 32.7698 72.8643 -71.3501 15.1536 -2.43963 67.4304 16.9219 29.6832 50.688 -1.92384 -0.754973 174.414 16.5328 84.4138 -94.0419 -15.6808 -3.89913 46.1586 4.14992 5.03362 50.7205 -3.90197 -4.94731 -0.340701 10.0657 -90.2544 6.74066 -0.789065 -0.469932 -4.93011 -0.809004 -0.434745 -27.4659 -0.611352 -0.68535 -7.45322 -0.611378 -0.685362 110.801 -51.7964 -69.0195 17.9092 -10.1577 -9.83947 -16.7082 -18.0349 -54.2654 -10.9706 -0.166763 -3.55261 -79.5665 -43.2905 94.017 -11.8898 -12.2512 -36.0553 3.53193 10.9794 -22.3852 13.6965 -1.08587 -11.4127 22.0337 -0.729162 -22.1633 -11.6427 4.64598 29.8614 
56.4606 82.7246 -18.3087 70.3617 53.4771 115.71 -176.132 20.1464 78.91 -62.4531 20.4984 0.903272 68.8656 15.5687 24.0651 55.8535 -2.38702 -0.431875 177.153 44.3914 86.607 -103.018 -4.60797 -3.76475 54.4075 -1.37597 1.51374 53.2674 -4.51257 -5.28028 -0.929822 9.72709 -90.4215 7.41758 -2.03907 -0.725555 -4.25192 -2.06904 -0.635093 -26.7955 -1.72678 -1.30496 -6.7828 -1.72677 -1.30496 112.749 -53.1693 -66.3362 19.8274 -5.48762 7.19793 -20.5242 -35.2772 -43.6126 -7.51405 -0.168716 -2.7801 -80.8635 -38.607 91.5678 -10.9178 -16.3934 -52.4781 8.37952 9.16793 -35.9679 14.9231 -1.47702 -13.4838 24.2963 -1.60519 -16.5823 -12.4849 2.53009 23.3062 
72.103 87.1111 -33.8396 64.4021 55.7151 124.797 -178.857 1.19487 89.5023 -40.5182 25.6541 7.09312 50.6576 0.133125 4.13985 52.9189 -2.35074 -6.50829 -178.551 56.5775 86.7966 -80.0253 -5.78163 -3.24566 60.01 -0.989549 12.4407 61.8982 -6.16714 -5.67556 -1.37453 9.26406 -91.0681 8.3164 -3.21345 -1.92058 -3.35174 -3.29487 -1.77721 -25.8968 -2.48786 -2.79759 -5.88419 -2.48786 -2.7976 109.734 -50.2759 -70.4306 25.1879 -6.87715 27.4001 -16.8717 -28.8861 -44.0764 -5.27912 -0.0440063 -4.76547 -79.7544 -37.6596 93.4684 -8.00226 -18.2663 -48.5697 13.8991 6.80449 -62.2549 16.6882 -1.73127 -14.1991 23.183 -0.414311 -17.8663 -15.6807 3.07113 24.945 
87.6426 89.2832 -51.0028 69.4298 54.1601 121.086 178.728 -8.68863 87.7559 -46.3673 18.2295 9.20776 37.6341 -8.22055 -1.30849 42.6391 -1.25664 5.82124 175.968 51.1536 90.5753 -41.4335 -11.136 2.10921 52.6393 3.13487 17.8988 83.0013 -8.06363 1.96689 -1.42798 9.29392 -91.3066 8.24431 -3.42449 -2.38151 -3.424 -3.52598 -2.22842 -25.9642 -2.55081 -3.30038 -5.95153 -2.5508 -3.30039 108.136 -49.8885 -72.8427 26.6838 -8.92367 28.694 -7.9229 -19.0528 -41.2755 -4.76441 0.00447704 -5.95703 -77.7462 -40.2591 97.0058 -9.09668 -8.54928 -32.451 9.85766 2.97621 -75.8629 15.9712 -1.4016 -12.4085 24.5429 -0.0139647 -22.1214 -20.9008 3.14288 31.2274 
102.175 88.1264 -67.3351 78.3106 52.5989 112.733 -179.428 0.598062 87.5812 -87.9762 7.46047 5.21754 45.9081 -1.93426 4.48916 36.545 -0.798938 2.84891 166.231 43.9531 95.4265 -45.313 -11.5974 8.2911 53.4945 2.59392 10.724 55.8379 -5.18454 -6.63954 -0.999124 9.73637 -91.2213 7.37022 -2.52294 -2.28861 -4.30011 -2.62118 -2.17537 -26.8296 -1.71878 -2.94072 -6.81696 -1.71879 -2.94073 111.77 -53.9727 -67.9331 21.9657 -10.2079 12.1842 -3.62504 -13.9951 -39.405 -5.51234 0.00452352 -5.84003 -77.2065 -44.6794 97.8953 -18.0724 1.64657 -22.3107 8.8355 12.7696 -51.0261 11.3764 -1.23317 -13.8265 24.1085 -0.137502 -24.1495 -19.0399 3.77173 34.3374 
116.357 85.6887 -82.998 81.8856 49.8058 114.747 179.761 24.7877 95.2119 -118.042 5.75494 3.62001 50.1995 3.3011 12.7315 48.1273 -1.51094 2.65984 167.201 35.2418 100.497 -60.303 -20.0533 7.01274 63.8322 -3.84804 0.987814 62.9806 -5.38968 -0.0465847 -0.293783 9.78252 -91.8102 7.2704 -1.36719 -3.50164 -4.40438 -1.51986 -3.43817 -26.9022 -0.252463 -3.7503 -6.88952 -0.252451 -3.7503 113.171 -54.4553 -65.9643 18.9062 -7.81929 -8.73956 -9.23943 -17.2778 -44.205 -5.28658 -0.067191 -4.14907 -75.2317 -49.9097 100.846 -27.4505 -1.92338 -12.0139 2.4966 38.0358 -16.487 9.15843 -0.945005 -12.7051 24.5135 1.22435 -18.6598 -17.9064 4.41922 27.6938 
131.254 86.9399 -101.135 79.696 46.9356 112.909 175.572 48.7246 93.0599 -108.302 3.89197 3.75326 57.0283 7.88776 15.9553 55.2184 -1.59348 5.84438 174.08 17.1587 96.5784 -53.1056 -15.8716 2.23883 71.4998 -4.86784 9.62286 70.5109 -7.59011 -3.36983 0.211874 8.95105 -91.2935 8.97987 -0.154545 -2.57533 -2.69367 -0.267708 -2.56605 -25.2094 0.626434 -2.50282 -5.19678 0.626441 -2.50282 111.536 -51.7254 -67.8938 19.6668 -9.3376 -14.2945 -11.6147 -8.66032 -60.3184 -5.73113 0.00229303 -5.61415 -74.543 -49.6042 101.916 -27.7313 -7.73974 6.47484 1.13183 55.4169 -11.0016 5.53576 -0.627201 -12.1773 22.3891 0.546393 -15.3906 -21.5215 2.29589 21.6079 
146.748 91.5238 -120.561 82.5521 48.8299 104.925 175.989 47.3368 92.0572 -63.4069 6.54124 4.08475 63.0655 9.69508 12.1623 57.7199 -1.18225 9.38155 174.733 -7.09244 88.5926 -33.172 -15.2699 -1.75168 53.149 3.4949 13.6562 63.5414 -6.46728 -4.68565 0.660953 8.59815 -90.4429 9.68107 1.11749 -0.961729 -1.98977 1.07407 -1.00999 -24.5277 1.35485 -0.58139 -4.515 1.35483 -0.581394 112.698 -51.2174 -66.0366 16.8304 -13.7569 -10.2365 -14.7218 -2.90736 -74.5646 -4.49554 0.0441916 -7.32923 -78.4209 -45.4394 95.9216 -23.7347 -9.23254 19.0414 4.1222 56.1443 -16.2482 3.46799 -0.528458 -12.8649 14.7592 -2.03494 -12.4771 -17.2623 -0.585708 16.4651 
